<svg version="1.1" xmlns="http://www.w3.org/2000/svg" width="512" height="512">
  <defs>
    <clipPath id="rounded-corners">
      <rect width="512" height="512" rx="100" ry="100" />
    </clipPath>
  </defs>
  <g clip-path="url(#rounded-corners)">
    <path d="M0 0 C168.96 0 337.92 0 512 0 C512 168.96 512 337.92 512 512 C343.04 512 174.08 512 0 512 C0 343.04 0 174.08 0 0 Z" fill="#FFFFFF" />
    <path d="M0 0 C22.7663807 0.40170744 45.5078602 1.26236389 68.25118256 2.34054184 C70.29475908 2.43666552 72.33842903 2.53049445 74.38214111 2.62368774 C139.22865925 5.59500386 139.22865925 5.59500386 161.42578125 29.08203125 C179.28051656 50.83556732 187.71985403 83.08537805 185 111 C183.13512893 124.04525924 178.69829052 135.79371286 168.30859375 144.34375 C163.82430474 147.56090489 159.38159658 149.77636987 154 151 C155.43279297 151.43699219 155.43279297 151.43699219 156.89453125 151.8828125 C174.43090594 157.3745985 186.51655555 164.86492956 195.28515625 181.546875 C205.19392876 201.49984743 210.43964983 230.74871254 203.91796875 252.45703125 C198.82165719 266.5748986 190.6512158 276.94287335 177 283.625 C160.22037212 290.56170528 142.7051645 291.30089368 124.81903076 292.53417969 C121.18062306 292.78843401 117.54353839 293.0603686 113.90625 293.33007812 C99.94565076 294.35759069 85.9818954 295.31130297 72 296 C70.59862174 291.18668834 69.3082106 286.35824236 68.1171875 281.48828125 C67.94226273 280.77595337 67.76733795 280.06362549 67.58711243 279.32971191 C67.01420926 276.99117224 66.44422067 274.65193863 65.875 272.3125 C65.57621445 271.08676773 65.57621445 271.08676773 65.27139282 269.83627319 C62.26345331 257.47451947 59.43099319 245.08321995 56.71606445 232.65426636 C53.6212834 218.51611741 50.27055291 204.44364591 46.875 190.375 C46.61267578 189.28808868 46.35035156 188.20117737 46.08007812 187.08132935 C45.82033203 186.00527435 45.56058594 184.92921936 45.29296875 183.82055664 C44.78252269 181.70589902 44.27210543 179.59123445 43.76171875 177.4765625 C43.51618256 176.45942673 43.27064636 175.44229095 43.01766968 174.39433289 C40.50915853 163.9890355 38.09951008 153.56254549 35.71826172 143.12744141 C33.95637618 135.45587317 32.15323489 127.79374181 30.3581543 120.12988281 C29.8104742 117.78807825 29.26540673 115.44566059 28.72338867 113.10253906 C28.28236711 111.2110433 27.83184341 109.32168874 27.36450195 107.43652344 C26.13879514 102.36335297 25.66361792 97.59084732 25.6875 92.375 C25.67138672 91.6634375 25.65527344 90.951875 25.63867188 90.21875 C25.63249249 83.47086691 27.60762628 77.60332537 32.25390625 72.48828125 C39.81710429 66.04179702 47.72360732 64.09477624 57.51171875 64.5546875 C65.53552426 65.5790031 70.22698566 68.55566467 75.4921875 74.609375 C79.76313941 81.38093607 81.20649899 89.42789148 83 97.125 C83.2475 98.16398437 83.495 99.20296875 83.75 100.2734375 C85.61448782 108.15866724 87.32692306 116.07216647 89 124 C92.98340305 124.09973852 96.96631108 124.17187198 100.95068359 124.21972656 C102.96347627 124.24946045 104.97592134 124.30031729 106.98828125 124.3515625 C114.49133784 124.4269701 119.68526903 124.1995653 126 120 C133.4416249 112.3572501 134.32393955 103.94618404 134.20703125 93.75390625 C133.49395697 80.82438964 128.64566159 68.07902663 119.7265625 58.4921875 C109.68927552 49.81742816 100.1095674 48.71650006 87.32421875 48.7265625 C85.99053487 48.71798681 84.6568595 48.7079819 83.32319641 48.69662476 C77.6928003 48.65068169 72.06246227 48.62577435 66.43188477 48.61914062 C62.97411044 48.61408738 59.51689067 48.58965065 56.05930519 48.55381393 C54.1242002 48.53943392 52.18897288 48.54660731 50.25382996 48.55435181 C38.50103127 48.4242257 30.71608172 45.55624327 22.234375 37.390625 C12.54972096 27.02872243 6.22913346 12.64485388 0 0 Z" fill="#000000" transform="translate(153,108)" />
    <path d="M0 0 C4.45810752 -0.11734237 8.91581128 -0.18763372 13.375 -0.25 C14.62667969 -0.28351563 15.87835938 -0.31703125 17.16796875 -0.3515625 C26.55890709 -0.44989693 33.37603366 0.97663739 41.25 6.125 C51.86488604 17.22238086 54.16749174 30.58532049 54.375 45.375 C54.43107422 46.87933594 54.43107422 46.87933594 54.48828125 48.4140625 C54.58960381 57.01522219 52.17226941 61.68018318 46.3125 67.8125 C38.72765813 72.82135784 30.76013534 73.43084289 21.875 73.1875 C20.91851562 73.17396484 19.96203125 73.16042969 18.9765625 73.14648438 C16.6504189 73.11159222 14.3255347 73.06258339 12 73 C11.8141333 71.89414551 11.6282666 70.78829102 11.43676758 69.64892578 C10.56576192 64.47364752 9.68988451 59.29920029 8.8125 54.125 C8.65482147 53.19416595 8.49714294 52.26333191 8.33468628 51.30429077 C6.20087672 38.73164201 3.98468051 26.18780884 1.4230957 13.69384766 C1.23320068 12.74944824 1.04330566 11.80504883 0.84765625 10.83203125 C0.68273682 10.03514893 0.51781738 9.2382666 0.34790039 8.41723633 C-0.05919463 5.58871156 -0.05603673 2.85374157 0 0 Z" fill="#FFFFFF" transform="translate(249,281)" />
    <path d="M0 0 C9.24 0 18.48 0 28 0 C26.68 0.99 25.36 1.98 24 3 C19.97311887 6.11568183 19.97311887 6.11568183 15.953125 9.24023438 C5.92077248 17 5.92077248 17 2 17 C1.65981837 15.29301718 1.3281911 13.58432867 1 11.875 C0.814375 10.92367188 0.62875 9.97234375 0.4375 8.9921875 C0 6 0 6 0 0 Z" fill="#FFFFFF" transform="translate(249,281)" />
  </g>
</svg>
