<svg version="1.1" xmlns="http://www.w3.org/2000/svg" width="512" height="512">
  <defs>
    <clipPath id="rounded-corners">
      <rect width="512" height="512" rx="100" ry="100" />
    </clipPath>
  </defs>
  <g clip-path="url(#rounded-corners)">
    <path d="M0 0 C168.96 0 337.92 0 512 0 C512 168.96 512 337.92 512 512 C343.04 512 174.08 512 0 512 C0 343.04 0 174.08 0 0 Z " fill="#FFFFFF" transform="translate(0,0)"/>
    <path d="M0 0 C1.49344027 0.36218258 2.98692868 0.72416671 4.48046875 1.0859375 C8.32754964 2.02993373 12.16362039 3.01350239 16 4 C41.1176309 10.28871055 68.88080652 8.01615351 92.69921875 -2.15234375 C95 -3 95 -3 99 -3 C99 14.82 99 32.64 99 51 C83.14001575 58.92999212 69.15118639 61.58141801 51.625 61.5625 C50.48424011 61.56630676 50.48424011 61.56630676 49.32043457 61.57019043 C32.90478937 61.56399685 17.75240962 57.86995309 1.97851562 53.51757812 C-8.56592721 50.75980077 -17.7341323 50.12658677 -29 49 C-29 87.94 -29 126.88 -29 167 C-47.15 167 -65.3 167 -84 167 C-84.2484595 146.92864208 -84.45102198 126.85853197 -84.56993389 106.786026 C-84.62661819 97.46567677 -84.70387314 88.14635183 -84.82983398 78.82666016 C-84.9395903 70.70203842 -85.01046678 62.5781585 -85.03497344 54.45281601 C-85.04929672 50.15134579 -85.08286655 45.85199738 -85.16303062 41.5512085 C-85.23794541 37.49904776 -85.26068294 33.44987266 -85.24418449 29.39708519 C-85.24720028 27.91350226 -85.26894838 26.42981517 -85.31126022 24.94683266 C-85.61346164 13.80441909 -85.61346164 13.80441909 -81.66712379 9.39102173 C-78.85749038 7.29342105 -76.11653653 5.60070235 -73 4 C-71.49892464 3.22440987 -71.49892464 3.22440987 -69.96752453 2.43315125 C-48.7792479 -8.00647752 -22.20961283 -5.54885837 0 0 Z " fill="#000000" transform="translate(253,226)"/>
    <path d="M0 0 C0 17.82 0 35.64 0 54 C-27.26791327 67.63395663 -54.98352982 73.21941471 -85 65 C-85.98871094 64.73703125 -86.97742188 64.4740625 -87.99609375 64.203125 C-92.53847713 62.99464961 -97.07917843 61.78367146 -101.60473633 60.51342773 C-112.1926715 57.55728206 -122.16884093 55.62247926 -133.1875 55.6875 C-134.18563721 55.69241455 -135.18377441 55.6973291 -136.2121582 55.70239258 C-150.89013794 55.93241798 -164.26818122 58.79583771 -177.0625 66.3125 C-180 68 -180 68 -183 68 C-183.25377585 60.27773322 -183.42875637 52.55654195 -183.54931641 44.83105469 C-183.59957444 42.20401839 -183.66779501 39.57726138 -183.75439453 36.95117188 C-183.87587299 33.17247726 -183.9324402 29.39747968 -183.9765625 25.6171875 C-184.02817535 24.44509735 -184.07978821 23.2730072 -184.13296509 22.06539917 C-184.13523413 18.758805 -184.03211548 16.1439127 -183 13 C-180.0093439 10.12206856 -176.81091752 8.56702047 -173 7 C-171.65320663 6.39791214 -171.65320663 6.39791214 -170.27920532 5.78366089 C-160.02977122 1.25941992 -150.16099175 0.65293054 -139.13647461 0.68432617 C-136.83463394 0.68746977 -134.53410295 0.66402458 -132.23242188 0.63867188 C-117.35740367 0.57237982 -104.05145316 4.103821 -89.90234375 8.48242188 C-79.04507448 11.75672319 -68.59299139 13.3767425 -57.25 13.3125 C-55.68584351 13.30512817 -55.68584351 13.30512817 -54.09008789 13.29760742 C-36.78728452 13.0372844 -20.68654971 8.55777069 -5.171875 0.91796875 C-3 0 -3 0 0 0 Z " fill="#000000" transform="translate(352,119)"/>
  </g>
</svg>
