<svg version="1.1" xmlns="http://www.w3.org/2000/svg" width="800" height="800">
  <defs>
    <clipPath id="rounded-corners">
      <rect width="800" height="800" rx="100" ry="100" />
    </clipPath>
  </defs>
  <g clip-path="url(#rounded-corners)">
    <path d="M0 0 C264 0 528 0 800 0 C800 264 800 528 800 800 C536 800 272 800 0 800 C0 536 0 272 0 0 Z" fill="#FEFEFF" />
    <path d="M0 0 C6.24875561 2.62202687 11.702055 8.60515108 14.6426121 14.62597567 C15.7238561 17.91266417 15.80781388 20.61348886 15.81195641 24.07423306 C15.81546248 24.73525364 15.81896855 25.39627422 15.82258087 26.07732573 C15.83189738 28.29613604 15.82697091 30.51468401 15.82211304 32.73350525 C15.82584927 34.3390652 15.83045068 35.94462334 15.83584368 37.55017859 C15.8480943 41.96584608 15.84781074 46.38143793 15.84545493 50.79711854 C15.84504724 55.5589257 15.85608196 60.32070845 15.86557007 65.08250427 C15.88219664 74.41714138 15.88768053 83.75175323 15.88879482 93.0864039 C15.88974532 100.68144722 15.89385574 108.27648222 15.90019608 115.8715229 C15.91781959 137.42285294 15.9270342 158.97416305 15.92553513 180.52550035 C15.92545522 181.68779568 15.9253753 182.85009102 15.92529297 184.04760742 C15.92521121 185.21133008 15.92512945 186.37505273 15.92504521 187.57403971 C15.92423388 206.39588547 15.94332979 225.21765091 15.9715697 244.03947347 C16.00036245 263.38329597 16.01410622 282.72707941 16.01238215 302.07092386 C16.01172004 312.92345064 16.0171324 323.7758934 16.03873825 334.6284008 C16.05703513 343.8781482 16.0612287 353.1277736 16.0477194 362.37753134 C16.04122999 367.08912192 16.04092459 371.80047906 16.0584259 376.51204681 C16.19001567 414.40136098 11.75711988 448.98941374 -14.4453125 478.3984375 C-15.14140625 479.22601562 -15.8375 480.05359375 -16.5546875 480.90625 C-36.72333671 504.3872686 -66.75832715 519.80040974 -97.4453125 523.3984375 C-102.70050621 523.73964786 -107.96027971 523.7701129 -113.22485352 523.76904297 C-115.61222643 523.77339993 -117.99771947 523.80980174 -120.38476562 523.84765625 C-153.62486267 524.0911507 -184.77360668 508.05082508 -208.4453125 485.3984375 C-217.89035345 475.46401619 -222.08596637 463.98987862 -221.78515625 450.42578125 C-221.14718602 439.34733555 -215.31181087 429.80292226 -207.3125 422.43359375 C-196.40973496 413.44925949 -186.22209493 411.84445048 -172.4453125 412.3984375 C-162.0300081 413.58007657 -154.30402575 419.25674461 -146.98852539 426.29833984 C-138.02405359 434.76886565 -127.85772278 438.801237 -115.5703125 438.6484375 C-114.77165771 438.64021973 -113.97300293 438.63200195 -113.15014648 438.62353516 C-100.61747658 438.38525686 -89.45560779 434.61351223 -80.4453125 425.3984375 C-68.35088153 409.7076449 -68.68254538 393.43228571 -68.4453125 374.3984375 C-70.02505859 375.10419922 -70.02505859 375.10419922 -71.63671875 375.82421875 C-95.40144281 386.20807981 -122.4883209 388.42359856 -147.4453125 380.3984375 C-148.21488281 380.15706055 -148.98445313 379.91568359 -149.77734375 379.66699219 C-183.73304334 368.76441498 -210.80850748 345.53159937 -227.31835938 313.93676758 C-236.67207028 295.30281522 -240.58000522 276.02363063 -240.62231445 255.26928711 C-240.62859061 253.84731383 -240.6352384 252.42534215 -240.64222717 251.00337219 C-240.66315437 246.3525199 -240.6736273 241.70166775 -240.68359375 237.05078125 C-240.68764724 235.43787686 -240.69176433 233.82497263 -240.69594383 232.21206856 C-240.71498024 224.62108393 -240.72920767 217.03010885 -240.7375558 209.43910497 C-240.74728586 200.73953158 -240.77350028 192.04021549 -240.81405669 183.34073251 C-240.84447476 176.57848231 -240.85904917 169.81630471 -240.86233681 163.05398756 C-240.86466059 159.03410949 -240.87326229 155.01450659 -240.89879799 150.99470329 C-241.0412192 127.33076512 -240.37464711 104.30503199 -230.4453125 82.3984375 C-230.15140625 81.7379541 -229.8575 81.0774707 -229.5546875 80.39697266 C-215.37726203 49.00088373 -189.39253374 25.10135163 -157.4453125 12.3984375 C-152.82376157 10.8275891 -148.18555123 9.55422074 -143.4453125 8.3984375 C-142.60701904 8.14763428 -141.76872559 7.89683105 -140.9050293 7.63842773 C-133.17293791 5.44011988 -125.92125772 4.96182742 -117.8996582 5.06225586 C-115.88126776 5.08595564 -113.86419892 5.08277546 -111.84570312 5.07617188 C-93.67937188 5.17456166 -78.19421386 9.88077321 -62.4921875 18.7265625 C-59.53276997 20.46880482 -59.53276997 20.46880482 -56.4453125 21.3984375 C-53.79192635 20.24016667 -53.79192635 20.24016667 -50.921875 18.4609375 C-49.81714844 17.81253906 -48.71242188 17.16414063 -47.57421875 16.49609375 C-46.40596174 15.79735672 -45.23799374 15.09813628 -44.0703125 14.3984375 C-39.53750087 11.71639325 -34.99721361 9.04796457 -30.4453125 6.3984375 C-29.87080353 6.06049164 -29.29629456 5.72254578 -28.70437622 5.37435913 C-18.70956683 -0.46715129 -11.59944664 -2.85353799 0 0 Z" fill="#000000" transform="translate(512.4453125,138.6015625)" />
    <path d="M0 0 C9.49770524 6.75707388 15.74502868 17.86441886 17.970891 29.25539112 C18.39130168 32.23667544 18.54635477 35.03894907 18.55168152 38.04655457 C18.55807899 39.68846268 18.55807899 39.68846268 18.56460571 41.36354065 C18.56392593 43.14268105 18.56392593 43.14268105 18.56323242 44.95776367 C18.56659103 46.21868835 18.56994965 47.47961304 18.57341003 48.77874756 C18.58221828 52.22737285 18.58458687 55.6759733 18.58522582 59.12460876 C18.58593838 61.28392972 18.58807666 63.44324445 18.59072304 65.60256386 C18.59996755 73.14951602 18.60405924 80.69645056 18.60327148 88.2434082 C18.60267166 95.25519834 18.613207 102.26691131 18.62901515 109.27868193 C18.64213722 115.31629583 18.6474534 121.35388466 18.64681607 127.39151269 C18.64656236 130.98952819 18.64934288 134.58747513 18.65999413 138.1854763 C18.67157152 142.20597892 18.66689986 146.22631134 18.66088867 150.24682617 C18.66650818 151.42279861 18.67212769 152.59877106 18.67791748 153.81037903 C18.62134849 168.76292823 15.64291357 182.10374216 5.29296875 193.42578125 C-4.47123153 202.41824061 -15.95896412 204.86397947 -28.79296875 204.63671875 C-40.48462294 203.98584316 -50.6843146 198.27007439 -58.69140625 189.83984375 C-64.99791239 181.78732145 -68.68096899 173.67860711 -68.7359314 163.47642517 C-68.74453186 162.28366974 -68.75313232 161.09091431 -68.76199341 159.86201477 C-68.76625336 158.56168808 -68.77051331 157.26136139 -68.77490234 155.92163086 C-68.7828105 154.53151244 -68.79107988 153.14139603 -68.79968262 151.75128174 C-68.82582581 147.19358255 -68.84120509 142.63587455 -68.85546875 138.078125 C-68.86083208 136.50429339 -68.86620959 134.93046184 -68.8716011 133.35663033 C-68.89322079 126.80516701 -68.91195372 120.25370608 -68.9232235 113.70221615 C-68.93943925 104.33961572 -68.97256941 94.97743176 -69.02962434 85.61498827 C-69.06844534 79.01772699 -69.08787064 72.42057653 -69.09314406 65.8232041 C-69.09678166 61.89019043 -69.10863122 57.95762171 -69.1412468 54.02473259 C-69.17154188 50.31862222 -69.17756423 46.61322105 -69.16586304 42.90701294 C-69.16554058 40.91735647 -69.18986385 38.92774234 -69.21524048 36.93824768 C-69.12626934 23.96989598 -64.71598081 13.67190212 -55.58203125 4.42578125 C-39.63990882 -9.37130478 -17.98147129 -10.96298476 0 0 Z" fill="#FDFEFF" transform="translate(425.58203125,234.57421875)" />
  </g>
</svg>
