<svg xmlns="http://www.w3.org/2000/svg" xml:space="preserve" width="399.99847" height="400" viewBox="0 0 399.99847 400"><path d="M0 0h-142.879c-32.556 0-59.192 26.638-59.192 59.193v142.879c0 32.557 26.636 59.194 59.192 59.194H0c32.557 0 59.194-26.637 59.194-59.194V59.193C59.194 26.638 32.557 0 0 0" style="fill:#fff;fill-opacity:1;fill-rule:nonzero;stroke:none" transform="matrix(1.531 0 0 -1.531 309.372 400)"/><path d="M0 0c0-13.669-11.081-24.75-24.751-24.75C-38.421-24.75-49.5-13.669-49.5 0c0 13.668 11.079 24.751 24.749 24.751C-11.081 24.751 0 13.668 0 0" style="fill:#fff;fill-opacity:1;fill-rule:nonzero;stroke:none" transform="matrix(1.531 0 0 -1.531 329.592 97.512)"/><path d="M0 0c-36.371 0-65.856-29.485-65.856-65.856 0-36.372 29.485-65.856 65.856-65.856 36.371 0 65.855 29.484 65.855 65.856C65.855-29.485 36.371 0 0 0m0-37.108c15.852 0 28.749-12.896 28.749-28.748S15.852-94.604 0-94.604c-15.853 0-28.748 12.896-28.748 28.748S-15.853-37.108 0-37.108" style="fill:#fff;fill-opacity:1;fill-rule:nonzero;stroke:none" transform="matrix(1.531 0 0 -1.531 191.903 130.029)"/><path d="M0 0c-36.371 0-65.856-29.485-65.856-65.856 0-36.372 29.485-65.856 65.856-65.856 36.371 0 65.855 29.484 65.855 65.856C65.855-29.485 36.371 0 0 0m0-37.108c15.852 0 28.749-12.896 28.749-28.748S15.852-94.604 0-94.604c-15.853 0-28.748 12.896-28.748 28.748S-15.853-37.108 0-37.108" style="fill:#000000;fill-opacity:1;fill-rule:nonzero;stroke:none" transform="matrix(1.531 0 0 -1.531 191.903 130.029)"/><path d="M0 0c0-13.669-11.081-24.75-24.751-24.75C-38.421-24.75-49.5-13.669-49.5 0c0 13.668 11.079 24.751 24.749 24.751C-11.081 24.751 0 13.668 0 0" style="fill:#000000;fill-opacity:1;fill-rule:nonzero;stroke:none" transform="matrix(1.531 0 0 -1.531 329.592 97.512)"/></svg>