<svg version="1.1" xmlns="http://www.w3.org/2000/svg" width="512" height="512">
  <defs>
    <clipPath id="rounded-corners">
      <rect width="512" height="512" rx="100" ry="100" />
    </clipPath>
  </defs>
  <g clip-path="url(#rounded-corners)">
    <path d="M0 0 C168.96 0 337.92 0 512 0 C512 168.96 512 337.92 512 512 C343.04 512 174.08 512 0 512 C0 343.04 0 174.08 0 0 Z " fill="#FFFFFF" transform="translate(0,0)"/>
    <path d="M0 0 C0.9343689 -0.00630432 1.86873779 -0.01260864 2.8314209 -0.019104 C4.34862732 -0.01303131 4.34862732 -0.01303131 5.89648438 -0.00683594 C6.93212524 -0.00874939 7.96776611 -0.01066284 9.03479004 -0.01263428 C11.22713463 -0.01399691 13.41948726 -0.01029508 15.61181641 -0.00195312 C18.97642054 0.00874514 22.34049069 -0.00184597 25.70507812 -0.01464844 C27.83138139 -0.01332686 29.95768433 -0.01076449 32.08398438 -0.00683594 C33.09545532 -0.0108844 34.10692627 -0.01493286 35.14904785 -0.019104 C36.08341675 -0.01279968 37.01778564 -0.00649536 37.98046875 0 C39.21718323 0.00238678 39.21718323 0.00238678 40.47888184 0.00482178 C42.49023438 0.25878906 42.49023438 0.25878906 44.49023438 2.25878906 C44.68814887 5.13745095 44.75940828 7.92002935 44.74420166 10.79992676 C44.74732164 11.69452244 44.75044162 12.58911813 44.75365615 13.51082277 C44.76167172 16.52648675 44.75529869 19.54195149 44.74902344 22.55761719 C44.75173172 24.71227639 44.75529173 26.86693467 44.75964355 29.02159119 C44.76878919 34.8871454 44.76521436 40.75262955 44.75888538 46.61818504 C44.75383661 52.7445228 44.7585137 58.8708544 44.76165771 64.99719238 C44.76530065 75.287039 44.7604897 85.57685695 44.75097656 95.86669922 C44.7400914 107.77846528 44.74361675 119.69016288 44.75462937 131.60192728 C44.76369295 141.81253602 44.76499209 152.0231241 44.75975204 162.23373556 C44.75662721 168.33935258 44.75623701 174.44493739 44.76282501 180.55055237 C44.76858435 186.28948244 44.76462757 192.02832389 44.7530365 197.76724434 C44.75038233 199.87885452 44.75116781 201.99047211 44.75556183 204.10207939 C44.76098896 206.97403888 44.75421781 209.84571046 44.74420166 212.71765137 C44.7486631 213.56257912 44.75312455 214.40750688 44.75772119 215.2780385 C44.71853442 221.03048902 44.71853442 221.03048902 42.49023438 223.25878906 C40.47888184 223.51275635 40.47888184 223.51275635 37.98046875 223.51757812 C37.04609985 223.52388245 36.11173096 223.53018677 35.14904785 223.53668213 C34.1375769 223.53263367 33.12610596 223.52858521 32.08398438 223.52441406 C31.04834351 223.52632751 30.01270264 223.52824097 28.94567871 223.5302124 C26.75333412 223.53157503 24.56098149 223.5278732 22.36865234 223.51953125 C19.00404821 223.50883299 15.63997806 223.51942409 12.27539062 223.53222656 C10.14908736 223.53090498 8.02278442 223.52834262 5.89648438 223.52441406 C4.37927795 223.53048676 4.37927795 223.53048676 2.8314209 223.53668213 C1.42986755 223.52722565 1.42986755 223.52722565 0 223.51757812 C-1.23671448 223.51519135 -1.23671448 223.51519135 -2.49841309 223.51275635 C-4.50976562 223.25878906 -4.50976562 223.25878906 -6.50976562 221.25878906 C-6.70768012 218.38012718 -6.77893953 215.59754878 -6.76373291 212.71765137 C-6.76685289 211.82305568 -6.76997287 210.92846 -6.7731874 210.00675535 C-6.78120297 206.99109137 -6.77482994 203.97562663 -6.76855469 200.95996094 C-6.77126297 198.80530173 -6.77482298 196.65064345 -6.7791748 194.49598694 C-6.78832044 188.63043272 -6.78474561 182.76494858 -6.77841663 176.89939308 C-6.77336786 170.77305532 -6.77804495 164.64672373 -6.78118896 158.52038574 C-6.7848319 148.23053912 -6.78002095 137.94072118 -6.77050781 127.65087891 C-6.75962265 115.73911285 -6.763148 103.82741524 -6.77416062 91.91565084 C-6.7832242 81.70504211 -6.78452334 71.49445402 -6.77928329 61.28384256 C-6.77615846 55.17822554 -6.77576826 49.07264074 -6.78235626 42.96702576 C-6.7881156 37.22809569 -6.78415882 31.48925424 -6.77256775 25.75033379 C-6.76991358 23.6387236 -6.77069906 21.52710601 -6.77509308 19.41549873 C-6.78052021 16.54353925 -6.77374906 13.67186766 -6.76373291 10.79992676 C-6.76819435 9.954999 -6.7726558 9.11007125 -6.77725244 8.23953962 C-6.73640132 2.24277038 -6.22819971 0.01202003 0 0 Z " fill="#000000" transform="translate(160.509765625,112.7412109375)"/>
    <path d="M0 0 C1.37152222 -0.00945648 1.37152222 -0.00945648 2.77075195 -0.019104 C3.76034912 -0.01505554 4.74994629 -0.01100708 5.76953125 -0.00683594 C6.78297607 -0.00874939 7.7964209 -0.01066284 8.84057617 -0.01263428 C10.98584237 -0.01399685 13.13111678 -0.01029541 15.27636719 -0.00195312 C18.56854697 0.00874524 21.86018103 -0.00184613 25.15234375 -0.01464844 C27.23307413 -0.01332686 29.31380416 -0.01076449 31.39453125 -0.00683594 C32.38412842 -0.0108844 33.37372559 -0.01493286 34.39331055 -0.019104 C35.30765869 -0.01279968 36.22200684 -0.00649536 37.1640625 0 C38.37412964 0.00238678 38.37412964 0.00238678 39.60864258 0.00482178 C41.58203125 0.25878906 41.58203125 0.25878906 43.58203125 2.25878906 C43.7777752 5.15231314 43.84679561 7.95002712 43.82926941 10.84461975 C43.83168382 11.74400455 43.83409824 12.64338936 43.83658582 13.57002825 C43.84224865 16.60185242 43.83354028 19.6334683 43.82495117 22.6652832 C43.82602341 24.8314164 43.82796121 26.99754931 43.83070374 29.16368103 C43.83556431 35.06016406 43.82788152 40.95657178 43.81775069 46.8530457 C43.808991 53.01054507 43.81072722 59.16804194 43.81111145 65.32554626 C43.81017393 75.66666938 43.80147775 86.0077632 43.7878418 96.34887695 C43.7721112 108.32313696 43.76684378 120.29734626 43.76757735 132.271617 C43.76818666 143.76833167 43.76309033 155.26503584 43.75478554 166.76174736 C43.75124519 171.66486124 43.74942122 176.5679714 43.74889183 181.4710865 C43.74789087 187.23871991 43.74181461 193.00632613 43.73172569 198.77395058 C43.72879281 200.89726851 43.72757691 203.02058957 43.72815323 205.14390945 C43.72864023 208.029283 43.7230249 210.91457919 43.71574402 213.79994202 C43.71729262 214.65167356 43.71884122 215.5034051 43.72043675 216.3809467 C43.69620978 222.14461053 43.69620978 222.14461053 42.58203125 223.25878906 C41.08333077 223.35710053 39.58004586 223.38677362 38.078125 223.38818359 C36.64158569 223.39291183 36.64158569 223.39291183 35.17602539 223.3977356 C34.13438232 223.39571136 33.09273926 223.39368713 32.01953125 223.39160156 C30.95790771 223.39255829 29.89628418 223.39351501 28.80249023 223.39450073 C26.55289653 223.3951827 24.30330088 223.39332725 22.05371094 223.38916016 C18.59696054 223.38381216 15.14034008 223.38910461 11.68359375 223.39550781 C9.50390596 223.39484703 7.32421825 223.39356588 5.14453125 223.39160156 C4.10288818 223.39362579 3.06124512 223.39565002 1.98803711 223.3977356 C1.03034424 223.39458344 0.07265137 223.39143127 -0.9140625 223.38818359 C-1.76154053 223.387388 -2.60901855 223.38659241 -3.48217773 223.38577271 C-5.41796875 223.25878906 -5.41796875 223.25878906 -6.41796875 222.25878906 C-6.52032909 219.43127895 -6.55682352 216.62804668 -6.55168152 213.79994202 C-6.55394708 212.9021172 -6.55621263 212.00429239 -6.55854684 211.07926077 C-6.56491741 208.04672421 -6.56405553 205.01423199 -6.56323242 201.98168945 C-6.566222 199.81732627 -6.56962406 197.65296362 -6.57341003 195.48860168 C-6.58227452 189.59201761 -6.58458917 183.69544802 -6.58522582 177.79885793 C-6.58617283 172.88550074 -6.58984869 167.97214698 -6.59339792 163.0587911 C-6.60155172 151.47221641 -6.6039813 139.88564949 -6.60327148 128.29907227 C-6.60267038 116.32540983 -6.6132265 104.35181075 -6.62901515 92.37815863 C-6.64206669 82.11661887 -6.64745639 71.85509386 -6.64681607 61.59354585 C-6.64656039 55.45661015 -6.64945017 49.31971442 -6.65999413 43.18278694 C-6.66963512 37.41350889 -6.66978194 31.64430934 -6.66247749 25.87502861 C-6.66142666 23.75212871 -6.66382382 21.62922403 -6.66983795 19.5063324 C-6.67749077 16.61900079 -6.67295799 13.7319449 -6.66520691 10.84461975 C-6.67035047 9.99511893 -6.67549404 9.14561811 -6.68079346 8.27037483 C-6.64535422 2.33881701 -6.19735041 0.01222388 0 0 Z " fill="#000000" transform="translate(314.41796875,112.7412109375)"/>
    <path d="M0 0 C1.37152222 -0.00945648 1.37152222 -0.00945648 2.77075195 -0.019104 C3.76034912 -0.01505554 4.74994629 -0.01100708 5.76953125 -0.00683594 C6.78297607 -0.00874939 7.7964209 -0.01066284 8.84057617 -0.01263428 C10.98584237 -0.01399685 13.13111678 -0.01029541 15.27636719 -0.00195312 C18.56854697 0.00874524 21.86018103 -0.00184613 25.15234375 -0.01464844 C27.23307413 -0.01332686 29.31380416 -0.01076449 31.39453125 -0.00683594 C32.38412842 -0.0108844 33.37372559 -0.01493286 34.39331055 -0.019104 C35.30765869 -0.01279968 36.22200684 -0.00649536 37.1640625 0 C38.37412964 0.00238678 38.37412964 0.00238678 39.60864258 0.00482178 C41.58203125 0.25878906 41.58203125 0.25878906 43.58203125 2.25878906 C43.77763169 5.03972936 43.84683804 7.72095613 43.82926941 10.50294495 C43.83168382 11.36557778 43.83409824 12.22821061 43.83658582 13.11698383 C43.84224791 16.02443531 43.83354086 18.93166952 43.82495117 21.83911133 C43.82602342 23.91657572 43.82796126 25.99403982 43.83070374 28.07150269 C43.83556401 33.72625909 43.82788191 39.38093696 43.81775069 45.03568387 C43.80899054 50.94093825 43.81072723 56.84619003 43.81111145 62.75144958 C43.81017395 72.66886719 43.80147807 82.58625426 43.7878418 92.50366211 C43.77211105 103.98713244 43.76684379 115.47056932 43.76757735 126.95404965 C43.76818667 137.97983299 43.76309028 149.00560537 43.75478554 160.03138542 C43.75124528 164.73354109 43.74942123 169.43569288 43.74889183 174.13784981 C43.74789084 179.66910029 43.74181435 185.20032243 43.73172569 190.73156357 C43.72879291 192.76780334 43.72757688 194.80404636 43.72815323 196.84028816 C43.72864026 199.60742833 43.72302457 202.37448784 43.71574402 205.14161682 C43.71729262 205.95832983 43.71884122 206.77504284 43.72043675 207.61650473 C43.6962098 213.14461051 43.6962098 213.14461051 42.58203125 214.25878906 C41.11946948 214.36220157 39.65198861 214.39729228 38.18579102 214.40405273 C37.25134659 214.41043259 36.31690216 214.41681244 35.35414124 214.42338562 C34.337509 214.42449844 33.32087677 214.42561127 32.2734375 214.42675781 C31.23638168 214.43008621 30.19932587 214.43341461 29.13084412 214.43684387 C26.93253016 214.44191766 24.73420848 214.44425206 22.53588867 214.4440918 C19.16246924 214.44627744 15.78937708 214.46442621 12.41601562 214.48339844 C10.28515737 214.48633236 8.15429756 214.48831716 6.0234375 214.48925781 C5.0088295 214.49644333 3.9942215 214.50362885 2.9488678 214.5110321 C1.54247292 214.50641716 1.54247292 214.50641716 0.10766602 214.50170898 C-0.71982651 214.503134 -1.54731903 214.50455902 -2.39988708 214.50602722 C-4.41796875 214.25878906 -4.41796875 214.25878906 -6.41796875 212.25878906 C-6.61573675 209.49270481 -6.68717994 206.82663214 -6.67193604 204.05932617 C-6.67505602 203.20148246 -6.678176 202.34363874 -6.68139052 201.45979977 C-6.68940503 198.56850875 -6.6830335 195.67742561 -6.67675781 192.78613281 C-6.67946614 190.72014238 -6.68302618 188.65415291 -6.68737793 186.58816528 C-6.69652299 180.96433791 -6.69294897 175.34058362 -6.68661976 169.71675491 C-6.6815707 163.84266202 -6.68624815 157.96857555 -6.68939209 152.09448242 C-6.69303494 142.22834139 -6.6882243 132.36223025 -6.67871094 122.49609375 C-6.66782579 111.07511086 -6.67135114 99.65419936 -6.68236375 88.23321819 C-6.69142756 78.44298788 -6.69272634 68.65277912 -6.68748641 58.86254597 C-6.68436172 53.00843955 -6.68397102 47.15436674 -6.69055939 41.30026245 C-6.69631908 35.79771442 -6.69236129 30.2952588 -6.68077087 24.79272079 C-6.67811689 22.76818877 -6.67890187 20.74364902 -6.6832962 18.71912003 C-6.68872409 15.96539082 -6.68195129 13.21196179 -6.67193604 10.45825195 C-6.6786282 9.24338812 -6.6786282 9.24338812 -6.68545556 8.00398159 C-6.6439886 2.16606917 -6.04537534 0.01192411 0 0 Z " fill="#000000" transform="translate(237.41796875,192.7412109375)"/>
    <path d="M0 0 C1.43653931 -0.00472824 1.43653931 -0.00472824 2.90209961 -0.009552 C3.94374268 -0.00752777 4.98538574 -0.00550354 6.05859375 -0.00341797 C7.12021729 -0.00437469 8.18184082 -0.00533142 9.27563477 -0.00631714 C11.52522847 -0.00699911 13.77482412 -0.00514366 16.02441406 -0.00097656 C19.48116446 0.00437143 22.93778492 -0.00092101 26.39453125 -0.00732422 C28.57421904 -0.00666344 30.75390675 -0.00538228 32.93359375 -0.00341797 C34.49605835 -0.00645432 34.49605835 -0.00645432 36.09008789 -0.009552 C37.04778076 -0.00639984 38.00547363 -0.00324768 38.9921875 0 C39.83966553 0.00079559 40.68714355 0.00159119 41.56030273 0.00241089 C43.49609375 0.12939453 43.49609375 0.12939453 44.49609375 1.12939453 C44.59599168 2.56687884 44.62684369 4.00923177 44.62980652 5.45018005 C44.6340715 6.3826355 44.63833649 7.31509094 44.64273071 8.27580261 C44.64227753 9.30699722 44.64182434 10.33819183 44.64135742 11.40063477 C44.64471603 12.48021454 44.64807465 13.55979431 44.65153503 14.67208862 C44.66107757 18.26073337 44.66298978 21.84933162 44.6640625 25.43798828 C44.66727271 27.92041544 44.6706366 30.40284241 44.67414856 32.88526917 C44.68014806 38.09661294 44.68198761 43.30794012 44.68139648 48.51928711 C44.68086196 53.88259849 44.68791055 59.24583796 44.7019043 64.60913086 C44.7185205 71.06822716 44.72545392 77.52725867 44.72478676 83.98637581 C44.72597093 86.45483834 44.73041697 88.92330145 44.73811913 91.39175224 C44.74786381 94.83749793 44.7450629 98.28301072 44.73901367 101.72875977 C44.74463318 102.75793015 44.75025269 103.78710052 44.75604248 104.84745789 C44.75184799 105.78273315 44.7476535 106.71800842 44.74333191 107.68162537 C44.74387668 108.49703513 44.74442144 109.3124449 44.74498272 110.15256405 C44.49609375 112.12939453 44.49609375 112.12939453 42.49609375 114.12939453 C40.47801208 114.37663269 40.47801208 114.37663269 37.97045898 114.37231445 C37.0328624 114.37539108 36.09526581 114.37846771 35.1292572 114.38163757 C34.1146492 114.37445206 33.1000412 114.36726654 32.0546875 114.35986328 C31.01667496 114.35940506 29.97866241 114.35894684 28.90919495 114.35847473 C26.71264504 114.35545036 24.51609732 114.34755858 22.31958008 114.33520508 C18.94409653 114.31695133 15.56888711 114.31469532 12.19335938 114.31494141 C10.06379969 114.31002631 7.93424188 114.30419802 5.8046875 114.29736328 C4.27973915 114.29569405 4.27973915 114.29569405 2.72398376 114.29399109 C1.32231712 114.28442131 1.32231712 114.28442131 -0.10766602 114.2746582 C-1.34771141 114.26894051 -1.34771141 114.26894051 -2.61280823 114.2631073 C-4.50390625 114.12939453 -4.50390625 114.12939453 -5.50390625 113.12939453 C-5.60168239 111.67690678 -5.63022356 110.21969086 -5.63088989 108.76391602 C-5.63370972 107.82160126 -5.63652954 106.8792865 -5.63943481 105.90841675 C-5.63741058 104.86630035 -5.63538635 103.82418396 -5.63330078 102.75048828 C-5.63592926 101.11407883 -5.63592926 101.11407883 -5.63861084 99.4446106 C-5.64303188 95.81868932 -5.64009047 92.19281635 -5.63671875 88.56689453 C-5.63739172 86.0596516 -5.63836168 83.55240873 -5.63961792 81.04516602 C-5.64109524 75.78254702 -5.63903385 70.51994071 -5.63427734 65.25732422 C-5.62883476 59.16511252 -5.63059743 53.07293427 -5.63610375 46.98072338 C-5.64118068 41.13038435 -5.6406533 35.28005808 -5.63772202 29.42971802 C-5.63705249 26.93531286 -5.63788204 24.44090685 -5.64020157 21.94650269 C-5.64272661 18.46707867 -5.63888959 14.98771991 -5.63330078 11.50830078 C-5.63532501 10.46618439 -5.63734924 9.42406799 -5.63943481 8.35037231 C-5.63661499 7.40805756 -5.63379517 6.4657428 -5.63088989 5.49487305 C-5.63032435 4.25931419 -5.63032435 4.25931419 -5.62974739 2.99879456 C-5.38080657 -0.6992804 -3.18075756 0.00298602 0 0 Z " fill="#000000" transform="translate(390.50390625,159.87060546875)"/>
    <path d="M0 0 C1.43653931 -0.00472824 1.43653931 -0.00472824 2.90209961 -0.009552 C3.94374268 -0.00752777 4.98538574 -0.00550354 6.05859375 -0.00341797 C7.12021729 -0.00437469 8.18184082 -0.00533142 9.27563477 -0.00631714 C11.52522847 -0.00699911 13.77482412 -0.00514366 16.02441406 -0.00097656 C19.48116446 0.00437143 22.93778492 -0.00092101 26.39453125 -0.00732422 C28.57421904 -0.00666344 30.75390675 -0.00538228 32.93359375 -0.00341797 C34.49605835 -0.00645432 34.49605835 -0.00645432 36.09008789 -0.009552 C37.04778076 -0.00639984 38.00547363 -0.00324768 38.9921875 0 C39.83966553 0.00079559 40.68714355 0.00159119 41.56030273 0.00241089 C43.49609375 0.12939453 43.49609375 0.12939453 44.49609375 1.12939453 C44.59599168 2.56687884 44.62684369 4.00923177 44.62980652 5.45018005 C44.6340715 6.3826355 44.63833649 7.31509094 44.64273071 8.27580261 C44.64227753 9.30699722 44.64182434 10.33819183 44.64135742 11.40063477 C44.64471603 12.48021454 44.64807465 13.55979431 44.65153503 14.67208862 C44.66107757 18.26073337 44.66298978 21.84933162 44.6640625 25.43798828 C44.66727271 27.92041544 44.6706366 30.40284241 44.67414856 32.88526917 C44.68014806 38.09661294 44.68198761 43.30794012 44.68139648 48.51928711 C44.68086196 53.88259849 44.68791055 59.24583796 44.7019043 64.60913086 C44.7185205 71.06822716 44.72545392 77.52725867 44.72478676 83.98637581 C44.72597093 86.45483834 44.73041697 88.92330145 44.73811913 91.39175224 C44.74786381 94.83749793 44.7450629 98.28301072 44.73901367 101.72875977 C44.74463318 102.75793015 44.75025269 103.78710052 44.75604248 104.84745789 C44.75184799 105.78273315 44.7476535 106.71800842 44.74333191 107.68162537 C44.74387668 108.49703513 44.74442144 109.3124449 44.74498272 110.15256405 C44.49609375 112.12939453 44.49609375 112.12939453 42.49609375 114.12939453 C40.47801208 114.37663269 40.47801208 114.37663269 37.97045898 114.37231445 C37.0328624 114.37539108 36.09526581 114.37846771 35.1292572 114.38163757 C34.1146492 114.37445206 33.1000412 114.36726654 32.0546875 114.35986328 C31.01667496 114.35940506 29.97866241 114.35894684 28.90919495 114.35847473 C26.71264504 114.35545036 24.51609732 114.34755858 22.31958008 114.33520508 C18.94409653 114.31695133 15.56888711 114.31469532 12.19335938 114.31494141 C10.06379969 114.31002631 7.93424188 114.30419802 5.8046875 114.29736328 C4.27973915 114.29569405 4.27973915 114.29569405 2.72398376 114.29399109 C1.32231712 114.28442131 1.32231712 114.28442131 -0.10766602 114.2746582 C-1.34771141 114.26894051 -1.34771141 114.26894051 -2.61280823 114.2631073 C-4.50390625 114.12939453 -4.50390625 114.12939453 -5.50390625 113.12939453 C-5.60168239 111.67690678 -5.63022356 110.21969086 -5.63088989 108.76391602 C-5.63370972 107.82160126 -5.63652954 106.8792865 -5.63943481 105.90841675 C-5.63741058 104.86630035 -5.63538635 103.82418396 -5.63330078 102.75048828 C-5.63592926 101.11407883 -5.63592926 101.11407883 -5.63861084 99.4446106 C-5.64303188 95.81868932 -5.64009047 92.19281635 -5.63671875 88.56689453 C-5.63739172 86.0596516 -5.63836168 83.55240873 -5.63961792 81.04516602 C-5.64109524 75.78254702 -5.63903385 70.51994071 -5.63427734 65.25732422 C-5.62883476 59.16511252 -5.63059743 53.07293427 -5.63610375 46.98072338 C-5.64118068 41.13038435 -5.6406533 35.28005808 -5.63772202 29.42971802 C-5.63705249 26.93531286 -5.63788204 24.44090685 -5.64020157 21.94650269 C-5.64272661 18.46707867 -5.63888959 14.98771991 -5.63330078 11.50830078 C-5.63532501 10.46618439 -5.63734924 9.42406799 -5.63943481 8.35037231 C-5.63661499 7.40805756 -5.63379517 6.4657428 -5.63088989 5.49487305 C-5.63032435 4.25931419 -5.63032435 4.25931419 -5.62974739 2.99879456 C-5.38080657 -0.6992804 -3.18075756 0.00298602 0 0 Z " fill="#000000" transform="translate(83.50390625,159.87060546875)"/>
    <path d="M0 0 C0 0.66 0 1.32 0 2 C-3.20782685 2.338329 -6.41633098 2.66976146 -9.625 3 C-10.52863281 3.09539062 -11.43226563 3.19078125 -12.36328125 3.2890625 C-16.93063039 3.75579891 -21.40117188 4.12222799 -26 4 C-26 3.01 -26 2.02 -26 1 C-22.41673516 0.83183879 -18.83337798 0.66573123 -15.25 0.5 C-14.23421875 0.45230469 -13.2184375 0.40460938 -12.171875 0.35546875 C-11.1921875 0.31035156 -10.2125 0.26523437 -9.203125 0.21875 C-8.30239258 0.17685547 -7.40166016 0.13496094 -6.47363281 0.09179688 C-4.31702276 0.01176476 -2.15809454 0 0 0 Z " fill="#E41387" transform="translate(231,267)"/>
  </g>
</svg>
